<?xml version="1.0" standalone="no"?>
<!DOCTYPE svg PUBLIC "-//W3C//DTD SVG 20010904//EN"
 "http://www.w3.org/TR/2001/REC-SVG-20010904/DTD/svg10.dtd">
<svg version="1.0" xmlns="http://www.w3.org/2000/svg"
 width="2560.000000pt" height="529.000000pt" viewBox="0 0 2560.000000 529.000000"
 preserveAspectRatio="xMidYMid meet">

<g transform="translate(0.000000,529.000000) scale(0.100000,-0.100000)"
fill="#000000" stroke="none">
<path d="M24420 4806 c-147 -42 -269 -147 -347 -301 -73 -142 -103 -294 -103
-514 0 -174 15 -287 60 -459 34 -127 51 -171 189 -496 171 -401 228 -608 247
-893 l7 -103 57 0 57 0 7 103 c21 308 76 500 281 977 164 382 203 534 212 825
4 153 2 208 -11 280 -57 305 -203 510 -412 575 -75 23 -174 25 -244 6z"/>
<path d="M660 4635 l0 -85 120 0 121 0 -4 -1777 c-3 -1961 1 -1844 -64 -1973
-33 -65 -89 -100 -161 -100 l-43 0 3 -77 3 -78 333 -3 332 -2 0 80 0 80 -37 0
c-85 0 -155 38 -188 100 -7 14 -21 59 -31 100 -17 70 -18 175 -20 1645 -2
1263 0 1560 10 1520 7 -27 174 -832 371 -1787 l359 -1738 66 0 66 0 358 1748
c196 961 361 1756 366 1767 5 12 9 -689 9 -1667 l1 -1688 -130 0 -131 0 3 -77
3 -78 733 -3 732 -2 0 80 0 79 -127 3 -128 3 -3 1923 -2 1922 130 0 130 0 0
85 0 85 -594 0 c-327 0 -597 -3 -599 -7 -3 -5 -96 -449 -207 -988 -111 -539
-203 -981 -204 -982 -2 -2 -71 336 -154 750 -84 413 -173 858 -200 987 l-47
235 -587 3 -588 2 0 -85z"/>
<path d="M4855 4708 c-3 -7 -158 -791 -345 -1743 -393 -1993 -404 -2045 -476
-2186 -30 -60 -57 -79 -111 -79 l-43 0 0 -80 0 -80 310 0 310 0 0 80 0 80 -54
0 c-72 0 -112 28 -151 105 -30 60 -30 61 -29 225 0 165 0 165 72 510 39 190
74 355 77 368 l5 22 328 0 328 0 112 -602 c62 -332 113 -609 112 -615 0 -10
-30 -13 -115 -13 l-115 0 0 -80 0 -80 723 2 722 3 3 78 3 77 -91 0 c-49 0 -90
1 -90 3 -1 1 -182 904 -404 2007 l-403 2005 -337 3 c-264 2 -338 0 -341 -10z
m39 -1845 c80 -408 146 -746 146 -752 0 -8 -91 -11 -296 -11 l-296 0 6 28 c3
15 64 331 136 702 153 794 151 783 155 778 2 -2 69 -337 149 -745z"/>
<path d="M6550 4635 l0 -85 120 0 120 0 0 -1744 c0 -1198 -3 -1769 -11 -1823
-26 -189 -83 -272 -194 -281 l-55 -4 0 -79 0 -79 335 0 335 0 0 80 0 80 -47 0
c-55 1 -115 20 -145 47 -30 26 -58 93 -76 182 -14 67 -16 266 -18 1631 -2 968
0 1547 6 1535 5 -11 172 -807 370 -1770 198 -962 363 -1758 366 -1767 8 -26
130 -26 138 0 2 9 165 800 361 1757 195 957 357 1745 360 1750 2 6 4 -749 4
-1677 l1 -1688 -125 0 -125 0 0 -80 0 -80 730 0 730 0 0 80 0 80 -125 0 -125
0 0 1925 0 1925 125 0 125 0 0 85 0 85 -595 0 -595 0 -5 -22 c-3 -13 -93 -450
-200 -973 -108 -522 -198 -957 -202 -965 -4 -11 -400 1910 -403 1953 0 4 -265
7 -590 7 l-590 0 0 -85z"/>
<path d="M9770 4635 l0 -85 120 0 120 0 -2 -1787 -3 -1788 -23 -80 c-38 -135
-96 -195 -189 -195 l-43 0 0 -80 0 -80 335 0 335 0 0 79 0 78 -65 5 c-127 11
-169 59 -208 242 -11 53 -21 3194 -10 3167 3 -7 170 -812 372 -1790 l367
-1776 66 -3 c61 -3 66 -1 71 20 3 13 166 806 362 1763 196 957 359 1742 361
1744 2 2 4 -755 4 -1682 l0 -1687 -125 0 -125 0 0 -80 0 -80 730 0 730 0 0 80
0 80 -125 0 -125 0 0 1925 0 1925 125 0 125 0 0 85 0 85 -594 0 c-558 0 -595
-1 -600 -17 -3 -10 -93 -445 -201 -968 -107 -522 -198 -961 -201 -975 -5 -17
-30 88 -75 315 -38 187 -128 634 -201 993 l-131 652 -589 0 -588 0 0 -85z"/>
<path d="M13966 4703 c-3 -10 -158 -796 -345 -1748 -339 -1720 -378 -1907
-428 -2060 -50 -155 -83 -195 -159 -195 l-44 0 0 -80 0 -80 310 0 310 0 0 80
0 80 -46 0 c-61 0 -107 23 -137 68 -44 67 -52 107 -51 257 1 132 5 160 73 500
40 198 75 370 78 383 l5 22 328 0 328 0 6 -28 c3 -15 53 -281 111 -592 58
-311 107 -575 110 -587 5 -23 4 -23 -110 -23 l-115 0 0 -80 0 -80 720 0 720 0
0 80 0 80 -89 0 -89 0 -10 48 c-6 26 -187 930 -403 2010 l-392 1962 -338 0
c-313 0 -338 -1 -343 -17z m43 -1850 l147 -748 -294 -3 c-162 -1 -296 -1 -297
0 -4 5 289 1508 293 1504 2 -2 70 -341 151 -753z"/>
<path d="M16510 4640 l0 -80 120 0 120 0 0 -1757 c0 -1153 -4 -1780 -10 -1823
-30 -189 -91 -270 -204 -270 l-46 0 0 -80 0 -80 335 0 335 0 0 79 0 79 -69 4
c-108 6 -152 48 -188 180 -16 58 -17 185 -19 1643 l-2 1580 42 -200 c24 -110
191 -912 372 -1782 l329 -1583 66 0 67 0 12 53 c6 28 168 813 360 1742 191
930 350 1699 353 1710 3 11 5 -737 6 -1662 l1 -1683 -125 0 -125 0 0 -80 0
-80 735 0 735 0 0 80 0 80 -125 0 -125 0 0 1925 0 1925 125 0 125 0 0 80 0 80
-599 0 -599 0 -9 -42 c-5 -24 -97 -465 -204 -980 -107 -516 -196 -938 -199
-938 -3 0 -72 330 -154 733 -81 402 -171 843 -199 980 l-50 247 -594 0 -593 0
0 -80z"/>
<path d="M19740 4640 l0 -80 125 0 125 0 0 -1925 0 -1925 -125 0 -125 0 0 -80
0 -80 755 0 755 0 0 80 0 80 -125 0 -125 0 2 1923 3 1922 123 3 122 3 0 79 0
80 -755 0 -755 0 0 -80z"/>
<path d="M21941 3038 c-183 -926 -348 -1750 -367 -1833 -59 -269 -107 -412
-153 -463 -26 -28 -36 -32 -80 -32 l-51 0 0 -80 0 -80 315 0 315 0 0 80 0 80
-57 0 c-74 0 -110 22 -145 87 -35 63 -52 180 -44 288 4 44 41 252 83 462 l77
383 333 0 c183 0 333 -3 333 -6 0 -10 221 -1178 226 -1196 5 -16 -5 -18 -115
-18 l-121 0 0 -80 0 -80 730 0 731 0 -3 78 -3 77 -90 5 -89 5 -403 1995 c-221
1097 -402 1998 -403 2003 0 4 -154 7 -343 7 l-343 0 -333 -1682z m518 -910 c1
-17 -19 -18 -294 -18 -162 0 -295 4 -295 9 0 9 262 1357 282 1451 11 55 12 54
159 -685 81 -407 148 -748 148 -757z"/>
<path d="M24465 1914 c-177 -24 -331 -133 -412 -291 -65 -127 -78 -190 -78
-393 0 -201 11 -255 75 -386 87 -179 274 -294 475 -294 256 1 462 165 530 425
58 221 30 508 -64 670 -66 114 -180 208 -296 244 -62 19 -178 32 -230 25z"/>
</g>
</svg>
